
<svg xmlns="http://www.w3.org/2000/svg" xml:space="preserve" width="100%" height="100%" version="1.1" style="shape-rendering:geometricPrecision; text-rendering:geometricPrecision; image-rendering:optimizeQuality; fill-rule:evenodd; clip-rule:evenodd"
viewBox="0 0 14270 14270"
 xmlns:xlink="http://www.w3.org/1999/xlink">
  <path class="fil0 str0" d="M6425 7248c1018,-549 1710,-1625 1710,-2863 0,-1537 -1070,-2808 -2502,-3160 -550,-135 -355,-318 21,-413 475,-120 971,-177 1481,-177 3590,0 6500,2910 6500,6500 0,3590 -2910,6500 -6500,6500 -3590,0 -6500,-2910 -6500,-6500 0,-993 223,-1933 620,-2775 85,-179 380,-595 380,25 0,1557 1094,2858 2556,3176 477,81 463,206 73,452 -709,447 -1180,1237 -1180,2138 0,1394 1131,2525 2526,2525 1394,0 2525,-1131 2525,-2525 0,-1106 -711,-2046 -1700,-2388 -259,-89 -550,-215 -10,-515z"/>
</svg>
