<?xml version="1.0" encoding="UTF-8"?>
<!DOCTYPE svg PUBLIC "-//W3C//DTD SVG 1.1//EN" "http://www.w3.org/Graphics/SVG/1.1/DTD/svg11.dtd">
<!-- Creator: CorelDRAW X8 -->
<svg xmlns="http://www.w3.org/2000/svg" xml:space="preserve" width="210mm" height="297mm" version="1.1" style="shape-rendering:geometricPrecision; text-rendering:geometricPrecision; image-rendering:optimizeQuality; fill-rule:evenodd; clip-rule:evenodd"
viewBox="0 0 21000 29700"
 xmlns:xlink="http://www.w3.org/1999/xlink">
 <defs>
  <style type="text/css">
   <![CDATA[
    .fil0 {fill:#FEFEFE}
   ]]>
  </style>
 </defs>
 <g id="Layer_x0020_1">
  <metadata id="CorelCorpID_0Corel-Layer"/>
  <g>
   <path class="fil0" d="M8687 10700c1278,0 2313,1035 2313,2313 0,1277 -1035,2312 -2313,2312 -1277,0 -2312,-1035 -2312,-2312 0,-1278 1035,-2313 2312,-2313zm-4187 -3750c0,1795 1455,3250 3250,3250 1795,0 3250,-1455 3250,-3250 0,-1537 -1070,-2808 -2502,-3160 -550,-135 -355,-318 21,-413 475,-120 971,-177 1481,-177 3590,0 6500,2910 6500,6500 0,3590 -2910,6500 -6500,6500 -3590,0 -6500,-2910 -6500,-6500 0,-993 223,-1933 620,-2775 85,-179 380,-595 380,25l0 0z"/>
  </g>
 </g>
</svg>
